<svg xmlns="http://www.w3.org/2000/svg" viewBox="0 0 32 32"><rect width="32" height="32" rx="8" fill="#ec4899"/><path d="M16 6.5C22.6 6.5 26.5 11.4 26.5 17.2C26.5 22.6 22.4 25.5 16 25.5C9.6 25.5 5.5 22.6 5.5 17.2C5.5 11.4 9.4 6.5 16 6.5Z" fill="#ffd3e0"/><ellipse cx="11.6" cy="11.4" rx="2.6" ry="1.3" fill="#fff" fill-opacity="0.75" transform="rotate(-25 11.6 11.4)"/><circle cx="12.4" cy="16.4" r="1.5" fill="#3b2f3f"/><circle cx="19.6" cy="16.4" r="1.5" fill="#3b2f3f"/><ellipse cx="9.8" cy="19.3" rx="1.7" ry="1" fill="#ff6f91" fill-opacity="0.6"/><ellipse cx="22.2" cy="19.3" rx="1.7" ry="1" fill="#ff6f91" fill-opacity="0.6"/><path d="M14 19.2q1 1.4 2 0q1 1.4 2 0" stroke="#3b2f3f" stroke-width="1.1" fill="none" stroke-linecap="round"/></svg>
